<?xml version="1.0" encoding="iso-8859-1"?>
<!-- Generator: Adobe Illustrator 19.0.0, SVG Export Plug-In . SVG Version: 6.00 Build 0)  -->
<svg version="1.1" id="Layer_1" xmlns="http://www.w3.org/2000/svg" xmlns:xlink="http://www.w3.org/1999/xlink" x="0px" y="0px"
	 viewBox="0 0 511.999 511.999" style="enable-background:new 0 0 511.999 511.999;" xml:space="preserve">
<path style="fill:#74C194;" d="M419.594,110.561c0,0,32.774,206.847-163.889,281.443C59.042,317.408,91.815,110.561,91.815,110.561"
	/>
<path style="fill:#43AC75;" d="M255.7,392.009C59.037,317.412,91.814,110.566,91.814,110.566H157.9
	C157.901,110.566,138.348,317.412,255.7,392.009z"/>
<path style="fill:#74C194;" d="M197.132,492.59c0,0-11.713-73.925,58.573-100.585c70.286,26.66,58.573,100.585,58.573,100.585l0,0
	C276.584,507.136,234.826,507.136,197.132,492.59L197.132,492.59z"/>
<path style="fill:#43AC75;" d="M255.7,392.009c-28.618,25.736-28.844,90.284-28.267,109.012
	c-10.285-1.808-20.446-4.623-30.313-8.432C197.119,492.59,185.41,418.66,255.7,392.009z"/>
<path style="fill:#4D4D4D;" d="M105.494,82.799c-8.798,8.501-13.679,17.891-13.679,27.762c0,38.276,73.375,69.305,163.886,69.305
	s163.886-31.029,163.886-69.305c0-9.569-4.585-18.685-12.879-26.977"/>
<path style="fill:#EC589B;" d="M184.207,25.024v30.528c0,24.346-19.734,44.08-44.08,44.08c-24.334,0-44.068-19.734-44.068-44.08
	V25.024c0-13.043,14.151-20.548,24.752-14.309c0.825,0.486,1.628,1.051,2.407,1.707l16.909,14.309l16.92-14.309
	C167.774,3.346,184.207,10.964,184.207,25.024z"/>
<path style="fill:#D3468D;" d="M140.128,99.632c-24.334,0-44.068-19.734-44.068-44.08V25.024c0-13.043,14.151-20.548,24.752-14.309
	C118.936,36.417,119.467,78.971,140.128,99.632z"/>
<path style="fill:#EC589B;" d="M261.249,25.024v30.528c0,24.346-19.734,44.08-44.08,44.08c-24.334,0-44.068-19.734-44.068-44.08
	V25.024c0-13.043,14.151-20.548,24.752-14.309c0.825,0.486,1.628,1.051,2.407,1.707l16.909,14.309l16.92-14.309
	C244.815,3.346,261.249,10.964,261.249,25.024z"/>
<path style="fill:#D3468D;" d="M217.169,99.632c-24.334,0-44.068-19.734-44.068-44.08V25.024c0-13.043,14.151-20.548,24.752-14.309
	C195.977,36.417,196.508,78.971,217.169,99.632z"/>
<path style="fill:#EC589B;" d="M338.297,25.024v30.528c0,24.346-19.734,44.08-44.08,44.08c-24.334,0-44.068-19.734-44.068-44.08
	V25.024c0-13.043,14.151-20.548,24.752-14.309c0.825,0.486,1.628,1.051,2.407,1.707l16.909,14.309l16.92-14.309
	C321.864,3.346,338.297,10.964,338.297,25.024z"/>
<path style="fill:#D3468D;" d="M294.218,99.632c-24.334,0-44.068-19.734-44.068-44.08V25.024c0-13.043,14.151-20.548,24.752-14.309
	C273.026,36.417,273.557,78.971,294.218,99.632z"/>
<path style="fill:#EC589B;" d="M415.343,25.024v30.528c0,24.346-19.734,44.08-44.08,44.08c-24.334,0-44.068-19.734-44.068-44.08
	V25.024c0-13.043,14.151-20.548,24.752-14.309c0.825,0.486,1.628,1.051,2.407,1.707l16.909,14.309l16.92-14.309
	C398.909,3.346,415.343,10.964,415.343,25.024z"/>
<path style="fill:#D3468D;" d="M371.263,99.632c-24.334,0-44.068-19.734-44.068-44.08V25.024c0-13.043,14.151-20.548,24.752-14.309
	C350.071,36.417,350.603,78.971,371.263,99.632z"/>
<path style="fill:#EC589B;" d="M222.733,67.978v30.528c0,24.346-19.734,44.08-44.08,44.08c-24.334,0-44.068-19.734-44.068-44.08
	V67.978c0-13.043,14.151-20.548,24.752-14.309c0.825,0.486,1.628,1.051,2.407,1.707l16.909,14.309l16.92-14.309
	C206.298,46.3,222.733,53.918,222.733,67.978z"/>
<path style="fill:#D3468D;" d="M178.653,142.586c-24.334,0-44.068-19.734-44.068-44.08V67.978c0-13.043,14.151-20.548,24.752-14.309
	C157.461,79.371,157.992,121.925,178.653,142.586z"/>
<path style="fill:#EC589B;" d="M299.773,67.978v30.528c0,24.346-19.734,44.08-44.08,44.08c-24.334,0-44.068-19.734-44.068-44.08
	V67.978c0-13.043,14.151-20.548,24.752-14.309c0.825,0.486,1.628,1.051,2.407,1.707l16.909,14.309l16.92-14.309
	C283.339,46.3,299.773,53.918,299.773,67.978z"/>
<path style="fill:#D3468D;" d="M255.693,142.586c-24.334,0-44.068-19.734-44.068-44.08V67.978c0-13.043,14.151-20.548,24.752-14.309
	C234.501,79.371,235.032,121.925,255.693,142.586z"/>
<path style="fill:#EC589B;" d="M376.822,67.978v30.528c0,24.346-19.734,44.08-44.08,44.08c-24.334,0-44.068-19.734-44.068-44.08
	V67.978c0-13.043,14.151-20.548,24.752-14.309c0.825,0.486,1.628,1.051,2.407,1.707l16.908,14.309l16.92-14.309
	C360.388,46.3,376.822,53.918,376.822,67.978z"/>
<path style="fill:#D3468D;" d="M332.742,142.586c-24.334,0-44.068-19.734-44.068-44.08V67.978c0-13.043,14.151-20.548,24.752-14.309
	C311.55,79.371,312.081,121.925,332.742,142.586z"/>
<path d="M416.686,81.938c4.539-7.795,7.134-16.825,7.134-26.386V25.024c0-9.839-5.546-18.523-14.474-22.664
	c-8.93-4.141-19.141-2.765-26.65,3.591l-11.432,9.675l-11.43-9.674c-7.768-6.576-18.347-7.687-27.093-3.392
	c-8.748-4.289-19.324-3.178-27.078,3.388l-11.445,9.678l-11.432-9.675c-7.759-6.569-18.335-7.681-27.084-3.391
	c-8.747-4.296-19.325-3.185-27.091,3.39l-11.435,9.676l-11.439-9.675c-7.752-6.564-18.326-7.678-27.076-3.394
	c-8.754-4.287-19.332-3.174-27.084,3.391l-11.445,9.678l-11.435-9.676c-7.509-6.353-17.715-7.731-26.639-3.592
	c-8.928,4.14-14.473,12.825-14.473,22.665v30.528c0,9.563,2.594,18.593,7.131,26.389c-14.028,14.028-18.855,84.111-2.89,143.566
	c9.831,36.613,26.236,69.059,48.76,96.436c24.455,29.727,56.159,53.428,94.404,70.645c-9.592,5.72-17.841,12.738-24.634,20.994
	c-2.975,3.616-2.455,8.957,1.161,11.932c3.615,2.974,8.956,2.455,11.932-1.161c7.282-8.852,16.717-16.008,28.086-21.364
	c4.029,9.004,10.828,25.809,15.396,45.708c0.901,3.925,4.392,6.583,8.254,6.581c0.628,0,1.267-0.07,1.906-0.217
	c4.563-1.048,7.412-5.596,6.364-10.159c-3.026-13.175-6.907-24.971-10.462-34.363c14.866,10.429,24.937,24.942,30.015,43.38
	c3.754,13.626,3.737,26.033,3.346,32.548c-5.82,2.025-11.726,3.685-17.687,4.992c0.082-3.885,0.023-7.85-0.188-11.869
	c-0.246-4.676-4.275-8.269-8.909-8.022c-4.676,0.244-8.267,4.233-8.024,8.909c0.246,4.701,0.248,9.289,0.047,13.74
	c-22.326,2.32-45.016-0.262-66.532-7.749c-0.454-7.622-0.394-23.28,5.589-39.559c1.615-4.394-0.637-9.266-5.033-10.881
	c-4.393-1.614-9.265,0.637-10.881,5.032c-5.184,14.107-6.544,27.613-6.771,36.46c-0.104,4.025-0.009,7.955,0.283,11.679
	c0.385,4.912,0.626,6.362,1.935,8.238c0.965,1.385,2.325,2.449,3.899,3.057c19.872,7.669,40.744,11.503,61.623,11.503
	c20.876-0.001,41.757-3.835,61.624-11.503c2.82-1.088,4.848-3.596,5.32-6.581c0.131-0.827,3.139-20.531-3.115-43.82
	c-4.889-18.212-16.38-41.538-43.116-57.501C378.87,346.54,414.022,263.382,425.232,200.043c0.817-4.61-2.259-9.008-6.869-9.824
	c-4.61-0.814-9.008,2.26-9.824,6.87c-10.88,61.461-45.875,142.879-150.314,184.819c-37.028-44.611-47.21-96.53-49.14-132.766
	c-0.25-4.676-4.276-8.269-8.915-8.015c-4.676,0.249-8.264,4.241-8.015,8.915c1.763,33.116,10.023,78.507,37.215,121.026
	c-30.13-15.408-55.444-35.363-75.458-59.607c-20.976-25.409-36.302-55.607-45.556-89.756c-8.202-30.273-10.136-58.408-10.076-78.622
	c8.972,9.123,21.835,17.357,38.232,24.291c17.225,7.284,37.472,12.786,59.487,16.331c-1.407,7.894-3.209,20.499-3.939,36.295
	c-0.216,4.677,3.4,8.643,8.077,8.859c0.133,0.007,0.266,0.009,0.399,0.009c4.501,0,8.252-3.542,8.461-8.086
	c0.709-15.341,2.516-27.55,3.827-34.789c13.842,1.541,28.218,2.35,42.876,2.35c44.884,0,87.211-7.447,119.186-20.968
	c16.417-6.942,29.293-15.188,38.266-24.325c0.031,8.277-0.274,17.867-1.213,28.379c-0.416,4.663,3.027,8.781,7.689,9.198
	c0.258,0.023,0.512,0.034,0.765,0.034c4.34,0,8.039-3.316,8.433-7.723C431.914,138.399,430.331,99.756,416.686,81.938z
	 M365.787,33.201c3.161,2.675,7.791,2.675,10.951,0l16.909-14.309c3.63-3.073,7.473-1.658,8.565-1.152
	c1.092,0.506,4.653,2.528,4.653,7.283v30.528c0,14.517-8.791,27.246-21.567,32.735V67.973c0-7.325-3-13.982-8.447-18.746
	c-8.602-7.521-20.792-8.267-30.08-2.221V25.024c0-2.732-0.418-5.37-1.224-7.852c1.131,0.272,2.265,0.816,3.332,1.72L365.787,33.201z
	 M207.434,168.268c-0.098-0.016-0.196-0.028-0.294-0.041c-6.847-0.917-13.535-2.016-20.007-3.317v-14.546
	c11.785-1.92,22.264-7.772,30.045-16.163c7.921,8.539,18.49,14.246,30.048,16.139v20.953
	C233.544,170.994,220.202,169.966,207.434,168.268z M184.133,76.154l16.913-14.31c3.63-3.071,7.471-1.66,8.562-1.154
	c1.091,0.506,4.65,2.526,4.65,7.282v30.53c0,19.63-15.97,35.601-35.601,35.601s-35.601-15.97-35.601-35.601v-30.53
	c0-4.756,3.559-6.777,4.65-7.282c0.565-0.262,1.865-0.766,3.494-0.766c1.518,0,3.318,0.439,5.069,1.92l16.912,14.31
	C176.342,78.828,180.972,78.83,184.133,76.154z M261.181,76.151l16.911-14.31c3.629-3.071,8.01-2.079,10.563,0.158
	c1.209,1.056,2.654,2.949,2.654,5.974v30.528c0,6.073-1.55,12.052-4.49,17.305c-6.285,11.287-18.206,18.298-31.112,18.298
	c-11.483,0-22.177-5.561-28.825-14.735c2.78-6.401,4.331-13.454,4.331-20.867v-30.53c0-2.733-0.442-5.371-1.251-7.853
	c1.139,0.27,2.279,0.816,3.352,1.725l16.92,14.309C253.391,78.826,258.023,78.824,261.181,76.151z M264.182,150.34
	c11.558-1.893,22.126-7.598,30.043-16.131c7.92,8.535,18.486,14.238,30.041,16.131v14.571c-18.623,3.74-38.956,5.92-60.084,6.381
	V150.34z M332.742,134.104c-11.484,0-22.178-5.561-28.825-14.735c2.837-6.549,4.344-13.664,4.344-20.868V67.973
	c0-2.731-0.418-5.366-1.222-7.846c1.128,0.272,2.257,0.815,3.32,1.715l16.908,14.309c3.16,2.674,7.79,2.675,10.95,0.001
	l16.924-14.312c3.624-3.069,8.011-2.073,10.552,0.149c1.211,1.059,2.654,2.956,2.654,5.984V98.5c0,6.073-1.55,12.052-4.49,17.305
	C357.57,127.093,345.649,134.104,332.742,134.104z M288.738,33.201c3.16,2.674,7.79,2.675,10.95,0.002l16.925-14.312
	c3.624-3.067,8.01-2.073,10.551,0.149c1.211,1.059,2.654,2.956,2.654,5.984v30.528c0,0.179-0.014,0.356-0.016,0.535l-8.489-7.185
	c-7.759-6.57-18.336-7.681-27.084-3.392c-7.81-3.835-17.07-3.339-24.494,1.489V25.024c0-2.731-0.418-5.366-1.222-7.846
	c1.128,0.272,2.256,0.815,3.32,1.715L288.738,33.201z M211.703,33.203c3.16,2.673,7.792,2.672,10.95-0.001l16.911-14.31
	c3.629-3.071,8.01-2.079,10.563,0.158c1.209,1.056,2.654,2.949,2.654,5.974v30.528c0,0.181-0.014,0.359-0.016,0.539l-8.501-7.19
	c-7.767-6.575-18.352-7.682-27.104-3.381c-0.141-0.068-0.275-0.146-0.417-0.211c-7.94-3.683-16.889-2.99-24.056,1.677V25.024
	c0-2.727-0.417-5.363-1.223-7.845c1.129,0.272,2.258,0.815,3.322,1.716L211.703,33.203z M104.537,25.024
	c0-4.757,3.559-6.779,4.651-7.284c1.091-0.505,4.927-1.916,8.555,1.154l16.909,14.309c3.161,2.674,7.791,2.675,10.95,0.002
	l16.925-14.312c3.624-3.069,8.016-2.075,10.538,0.125c1.216,1.068,2.665,2.977,2.665,6.007v30.528c0,0.18-0.014,0.358-0.016,0.538
	l-8.494-7.187c-7.511-6.355-17.721-7.732-26.648-3.592c-8.924,4.14-14.471,12.824-14.471,22.663v20.32
	c-12.775-5.485-21.565-18.215-21.565-32.74C104.537,55.554,104.537,25.024,104.537,25.024z M100.292,110.561
	c0-5.096,1.843-10.204,5.479-15.254c5.934,5.146,13.049,8.989,20.921,11.065c3.391,22.487,21.085,40.342,43.486,43.992v10.563
	c-9.679-2.606-18.768-5.66-27.062-9.167C115.901,140.251,100.292,125.234,100.292,110.561z M368.284,151.76
	c-8.295,3.507-17.384,6.561-27.065,9.169V150.34c15.679-2.569,29.567-12.135,37.439-26.269c3.062-5.472,5.083-11.484,6.023-17.694
	c7.881-2.076,15.003-5.922,20.942-11.072c3.638,5.053,5.486,10.163,5.486,15.256C411.11,125.234,395.5,140.251,368.284,151.76z"/>
<g>
</g>
<g>
</g>
<g>
</g>
<g>
</g>
<g>
</g>
<g>
</g>
<g>
</g>
<g>
</g>
<g>
</g>
<g>
</g>
<g>
</g>
<g>
</g>
<g>
</g>
<g>
</g>
<g>
</g>
</svg>
